<?xml version="1.0" encoding="utf-8"?>
<!-- Generator: Adobe Illustrator 24.0.1, SVG Export Plug-In . SVG Version: 6.00 Build 0)  -->
<svg version="1.1" xmlns="http://www.w3.org/2000/svg" xmlns:xlink="http://www.w3.org/1999/xlink" x="0px" y="0px"
	 viewBox="0 0 1920 1080" style="enable-background:new 0 0 1920 1080;" xml:space="preserve">
<style type="text/css">
	.st0{display:none;}
	.st1{display:inline;}
	.st2{fill:none;stroke:#000000;stroke-miterlimit:10;}
	.st3{display:inline;fill:none;stroke:#000000;stroke-miterlimit:10;}
	.st4{fill:url(#SVGID_1_);stroke:#000000;stroke-miterlimit:10;}
	.st5{fill:url(#SVGID_2_);stroke:#000000;stroke-miterlimit:10;}
	.st6{fill:url(#SVGID_3_);stroke:#000000;stroke-miterlimit:10;}
	.st7{fill:url(#SVGID_4_);stroke:#000000;stroke-miterlimit:10;}
	.st8{fill-rule:evenodd;clip-rule:evenodd;fill:url(#SVGID_5_);}
	.st9{display:none;fill:none;stroke:#000000;stroke-miterlimit:10;}
	.st10{fill:url(#SVGID_6_);stroke:#000000;stroke-miterlimit:10;}
	.st11{fill:url(#SVGID_7_);stroke:#000000;stroke-miterlimit:10;}
</style>
<g id="Layer_1" class="st0">
	<g class="st1">
		<path class="st2" d="M998.5,721.5c0,2.1,0,4.3,0,4.3s0,54,0,59.7l-284,135"/>
	</g>
	<g class="st1">
		<path class="st2" d="M960.6,659.5"/>
	</g>
	<g class="st1">
		<path class="st2" d="M803,384"/>
	</g>
	<line class="st3" x1="998.5" y1="627.5" x2="826.2" y2="360.1"/>
	<line class="st3" x1="998.5" y1="628" x2="998.5" y2="725.8"/>
	<path class="st3" d="M841.4,685.2l157.1-57.7c0,0.2,0,0.5,0,0.5"/>
	<polyline class="st3" points="714.5,920.5 652.5,754.5 841.4,685.2 	"/>
	<path class="st3" d="M1440.5,633.5"/>
	<path class="st3" d="M1084.5,859.5"/>
	<polyline class="st2" points="1235.5,386.5 1251.5,522.5 1312.5,488.5 1307.5,345.5 	"/>
	<line class="st3" x1="258.5" y1="133.5" x2="1191.5" y2="240.5"/>
	<line class="st3" x1="790.2" y1="304.4" x2="1191.5" y2="283.5"/>
	<line class="st3" x1="327.5" y1="328.5" x2="790.5" y2="304.5"/>
	<line class="st3" x1="258.5" y1="133.5" x2="327.5" y2="328.5"/>
	<line class="st3" x1="1191.5" y1="240.5" x2="1191.5" y2="283.5"/>
</g>
<g id="_x31_">
	<linearGradient id="SVGID_1_" gradientUnits="userSpaceOnUse" x1="1235.2184" y1="433.5817" x2="1312.2184" y2="433.5817">
		<stop  offset="0" style="stop-color:#800020"/>
		<stop  offset="1" style="stop-color:#000000"/>
	</linearGradient>
	<polyline class="st4" points="1307.2,345.1 1235.2,386.1 1251.2,522.1 1312.2,488.1 1307.2,345.1 	"/>
</g>
<g id="Layer_3">
	<linearGradient id="SVGID_2_" gradientUnits="userSpaceOnUse" x1="1084.8958" y1="745.9907" x2="1559.8958" y2="745.9907">
		<stop  offset="0" style="stop-color:#800020"/>
		<stop  offset="1" style="stop-color:#000000"/>
	</linearGradient>
	<polyline class="st5" points="1235.5,867.5 1559.9,624 1440.9,631 1084.9,857 1235.9,868 	"/>
</g>
<g id="Layer_5">
	<linearGradient id="SVGID_3_" gradientUnits="userSpaceOnUse" x1="807.7578" y1="355.9645" x2="1307.2512" y2="355.9645">
		<stop  offset="0" style="stop-color:#800020"/>
		<stop  offset="1" style="stop-color:#000000"/>
	</linearGradient>
	<polyline class="st6" points="807.8,370.7 825.3,401.1 825.3,401.1 1235.3,386.1 1307.3,345.1 908.3,311.1 908.6,310.8 
		808.3,371.1 	"/>
</g>
<g id="Layer_4">
	<linearGradient id="SVGID_4_" gradientUnits="userSpaceOnUse" x1="806.6657" y1="589.965" x2="1234.1591" y2="589.965">
		<stop  offset="0" style="stop-color:#800020"/>
		<stop  offset="1" style="stop-color:#000000"/>
	</linearGradient>
	<polyline class="st7" points="807.2,370.6 907.5,310.3 907.2,310.6 1234.2,869.6 1087.5,855.5 1087.5,855.9 806.7,370.2 	"/>
</g>
<g id="Layer_6">
	<g>
		<path class="st2" d="M714.5,920.6l284-135c0-5.7,0-59.7,0-59.7v-97.8c0,0,0-0.3,0-0.5l-346,127L714.5,920.6"/>
		<linearGradient id="SVGID_5_" gradientUnits="userSpaceOnUse" x1="652.4839" y1="774.1323" x2="998.4839" y2="774.1323">
			<stop  offset="0" style="stop-color:#800020"/>
			<stop  offset="1" style="stop-color:#000000"/>
		</linearGradient>
		<path class="st8" d="M714.5,920.6l284-135c0-5.7,0-59.7,0-59.7v-97.8c0,0,0-0.3,0-0.5l-346,127L714.5,920.6"/>
	</g>
</g>
<g id="Layer_8">
	<path class="st9" d="M790.2,304.9l401.3-20.9v-43c0,0-932.6-107-933-107c0.1,0.2,69,195,69,195l463-24"/>
	<linearGradient id="SVGID_6_" gradientUnits="userSpaceOnUse" x1="270.5" y1="231.5001" x2="1203.5" y2="231.5001">
		<stop  offset="0" style="stop-color:#800020"/>
		<stop  offset="1" style="stop-color:#000000"/>
	</linearGradient>
	<path class="st10" d="M1203.5,284v-43c0,0-932.6-107-933-107c0.1,0.2,69,195,69,195l863.5-45"/>
</g>
<g id="Layer_7">
	<linearGradient id="SVGID_7_" gradientUnits="userSpaceOnUse" x1="673.5" y1="437" x2="998.5" y2="437">
		<stop  offset="0" style="stop-color:#800020"/>
		<stop  offset="1" style="stop-color:#000000"/>
	</linearGradient>
	<polyline class="st11" points="841.5,685.5 673.5,288.5 715.5,188.5 826.2,360.1 998.5,627.5 841.4,685.2 	"/>
</g>
</svg>
