<?xml version="1.0" encoding="utf-8"?>
<!-- Generator: Adobe Illustrator 24.0.1, SVG Export Plug-In . SVG Version: 6.00 Build 0)  -->
<svg version="1.1" id="Layer_1" xmlns="http://www.w3.org/2000/svg" xmlns:xlink="http://www.w3.org/1999/xlink" x="0px" y="0px"
	 viewBox="0 0 1920 1080" style="enable-background:new 0 0 1920 1080;" xml:space="preserve">
<style type="text/css">
	.st0{display:none;}
	.st1{display:inline;}
	.st2{fill:none;stroke:#000000;stroke-miterlimit:10;}
	.st3{display:inline;fill:none;stroke:#000000;stroke-miterlimit:10;}
	.st4{fill:url(#SVGID_1_);stroke:#000000;stroke-miterlimit:10;}
	.st5{fill:url(#SVGID_2_);stroke:#000000;stroke-miterlimit:10;}
	.st6{fill:url(#SVGID_3_);stroke:#000000;stroke-miterlimit:10;}
	.st7{fill:url(#SVGID_4_);stroke:#000000;stroke-miterlimit:10;}
	.st8{fill-rule:evenodd;clip-rule:evenodd;fill:url(#SVGID_5_);}
	.st9{display:none;fill:none;stroke:#000000;stroke-miterlimit:10;}
	.st10{fill:url(#SVGID_6_);stroke:#000000;stroke-miterlimit:10;}
	.st11{fill:url(#SVGID_7_);stroke:#000000;stroke-miterlimit:10;}
</style>
<g id="Layer_1_1_" class="st0">
	<g class="st1">
		<path class="st2" d="M998.5,721.5c0,2.1,0,4.3,0,4.3s0,54,0,59.7l-284,135"/>
	</g>
	<g class="st1">
		<path class="st2" d="M960.6,659.5"/>
	</g>
	<g class="st1">
		<path class="st2" d="M803,384"/>
	</g>
	<line class="st3" x1="998.5" y1="627.5" x2="826.2" y2="360.1"/>
	<line class="st3" x1="998.5" y1="628" x2="998.5" y2="725.8"/>
	<path class="st3" d="M841.4,685.2l157.1-57.7c0,0.2,0,0.5,0,0.5"/>
	<polyline class="st3" points="714.5,920.5 652.5,754.5 841.4,685.2 	"/>
	<path class="st3" d="M1440.5,633.5"/>
	<path class="st3" d="M1084.5,859.5"/>
	<polyline class="st3" points="1235.5,386.5 1251.5,522.5 1312.5,488.5 1307.5,345.5 	"/>
	<line class="st3" x1="258.5" y1="133.5" x2="1191.5" y2="240.5"/>
	<line class="st3" x1="790.2" y1="304.4" x2="1191.5" y2="283.5"/>
	<line class="st3" x1="327.5" y1="328.5" x2="790.5" y2="304.5"/>
	<line class="st3" x1="258.5" y1="133.5" x2="327.5" y2="328.5"/>
	<line class="st3" x1="1191.5" y1="240.5" x2="1191.5" y2="283.5"/>
</g>
<g id="_x31_">
	
		<linearGradient id="SVGID_1_" gradientUnits="userSpaceOnUse" x1="1298.7294" y1="628.1735" x2="1375.7294" y2="628.1735" gradientTransform="matrix(1 0 0 -1 0 1080)">
		<stop  offset="0" style="stop-color:#800020"/>
		<stop  offset="1" style="stop-color:#000000"/>
	</linearGradient>
	<polyline class="st4" points="1370.7,363.3 1298.7,404.3 1314.7,540.3 1375.7,506.3 1370.7,363.3 	"/>
</g>
<g id="Layer_3">
	
		<linearGradient id="SVGID_2_" gradientUnits="userSpaceOnUse" x1="1148.4294" y1="315.7735" x2="1623.4294" y2="315.7735" gradientTransform="matrix(1 0 0 -1 0 1080)">
		<stop  offset="0" style="stop-color:#800020"/>
		<stop  offset="1" style="stop-color:#000000"/>
	</linearGradient>
	<polyline class="st5" points="1299,885.7 1623.4,642.2 1504.4,649.2 1148.4,875.2 1299.4,886.2 	"/>
</g>
<g id="Layer_5">
	
		<linearGradient id="SVGID_3_" gradientUnits="userSpaceOnUse" x1="871.3294" y1="705.8235" x2="1370.8295" y2="705.8235" gradientTransform="matrix(1 0 0 -1 0 1080)">
		<stop  offset="0" style="stop-color:#800020"/>
		<stop  offset="1" style="stop-color:#000000"/>
	</linearGradient>
	<polyline class="st6" points="871.3,388.9 888.8,419.3 888.8,419.3 1298.8,404.3 1370.8,363.3 971.8,329.3 972.1,329 871.8,389.3 	
		"/>
</g>
<g id="Layer_4">
	
		<linearGradient id="SVGID_4_" gradientUnits="userSpaceOnUse" x1="870.2294" y1="471.8235" x2="1297.7294" y2="471.8235" gradientTransform="matrix(1 0 0 -1 0 1080)">
		<stop  offset="0" style="stop-color:#800020"/>
		<stop  offset="1" style="stop-color:#000000"/>
	</linearGradient>
	<polyline class="st7" points="870.7,388.8 971,328.5 970.7,328.8 1297.7,887.8 1151,873.7 1151,874.1 870.2,388.4 	"/>
</g>
<g id="Layer_6">
	<g>
		<path class="st2" d="M778,938.8l284-135c0-5.7,0-59.7,0-59.7v-97.8c0,0,0-0.3,0-0.5l-346,127L778,938.8"/>
		
			<linearGradient id="SVGID_5_" gradientUnits="userSpaceOnUse" x1="716.0294" y1="287.6735" x2="1062.0294" y2="287.6735" gradientTransform="matrix(1 0 0 -1 0 1080)">
			<stop  offset="0" style="stop-color:#800020"/>
			<stop  offset="1" style="stop-color:#000000"/>
		</linearGradient>
		<path class="st8" d="M778,938.8l284-135c0-5.7,0-59.7,0-59.7v-97.8c0,0,0-0.3,0-0.5l-346,127L778,938.8"/>
	</g>
</g>
<g id="Layer_8">
	<path class="st9" d="M824.9,315.7l435.6-21.3v-43.9c0,0-1012.4-109.3-1012.8-109.3c0.1,0.2,74.9,199.2,74.9,199.2l502.6-24.5"/>
	
		<linearGradient id="SVGID_6_" gradientUnits="userSpaceOnUse" x1="260.7165" y1="839.25" x2="1273.5427" y2="839.25" gradientTransform="matrix(1 0 0 -1 0 1080)">
		<stop  offset="0" style="stop-color:#800020"/>
		<stop  offset="1" style="stop-color:#000000"/>
	</linearGradient>
	<path class="st10" d="M1273.5,294.4v-43.9c0,0-1012.4-109.3-1012.8-109.3c0.1,0.2,74.9,199.2,74.9,199.2l937.4-46"/>
</g>
<g id="Layer_7">
	
		<linearGradient id="SVGID_7_" gradientUnits="userSpaceOnUse" x1="737.0294" y1="624.7735" x2="1062.0294" y2="624.7735" gradientTransform="matrix(1 0 0 -1 0 1080)">
		<stop  offset="0" style="stop-color:#800020"/>
		<stop  offset="1" style="stop-color:#000000"/>
	</linearGradient>
	<polyline class="st11" points="905,703.7 737,306.7 779,206.7 889.7,378.3 1062,645.7 904.9,703.4 	"/>
</g>
</svg>
